<?xml version="1.0" encoding="UTF-8"?>
<svg version="1.1" viewBox="0 0 2000 2000" width="2000" height="2000" xmlns="http://www.w3.org/2000/svg">
<path transform="translate(581,578)" d="m0 0 42 4 20 4 22 6 22 9 25 12 18 10 14 9 19 14 11 9 13 12 20 20 11 14 9 12 14 21 12 21 10 21 10 26 6 19 6 26 3 29v10l-1 1h-68l-5-34-8-29-10-24-9-19-8-14-12-17-11-13-11-12-8-8-11-9-13-10-17-11-23-12-22-10-18-6-17-4-21-3-11-1-3-2-1-68z" fill="#F5C643"/>
<path transform="translate(535,577)" d="m0 0 2 1 1 5v25l-1 39-1 1-35 5-17 4-22 7-21 9-15 8-22 14-11 9-10 9-8 7-11 11-9 11-12 15-11 18-6 10-9 19-9 25-6 21-4 27-1 9-2 1h-68l-1-1 1-14 5-35 8-30 10-27 12-25 12-21 8-12 12-16 11-13 9-11 25-25 11-9 18-14 20-13 18-10 17-8 26-10 16-5 20-5 39-5z" fill="#E97B4F"/>
<path transform="translate(227,926)" d="m0 0h67l1 1 3 24 6 29 8 24 9 20 10 19 12 19 13 16 9 10 17 17 11 9 7 6 13 9 15 9 26 13 17 7 27 8 37 5 1 2-1 67-2 1-37-4-34-8-19-7-17-7-8-3-15-8-16-9-24-16-16-13-11-9-13-12-18-18-11-14-11-15-10-15-14-26-8-18-5-12-7-20-7-27-4-30-1-10z" fill="#287DC3"/>
<path transform="translate(483,783)" d="m0 0h8l9 5 18 13 17 12 19 14 14 10 13 10 16 12 18 13 17 12 19 14 10 8 3 6-1 5-4 7-16 4-27 6-7 2-2 3 1 9 13 23 12 21 2 5v7l-5 10-4 5-11 5-9 1-11-3-8-7-17-25-8-10-6-7-5 1-7 6-7 8-8 8-7 8-7 7-5 3-8-1-6-4-3-8-2-11-3-36-2-35-3-23-1-10-4-54-4-33 1-9 5-6z"/>
<path transform="translate(1270,1132)" d="m0 0 11 1 12 6 7 6 6 8h3l2-4 14-11 11-5 5-1h15l11 3 8 6 7 7 5 8 3 13v96l-2 1h-32l-1-2v-83l-3-9-5-4-6-2h-10l-10 4-5 4-4 8-1 83-1 1h-32l-1-1-1-38v-48l-3-7-6-5-3-1h-13l-9 4-8 9-2 6-1 80-2 1h-31l-1-1v-128l3-1 31 1v16l7-6 14-10 11-4z" fill="#E95527"/>
<path transform="translate(590,1085)" d="m0 0 38 1 1 3v101l1 13 4 11 8 11 9 6 10 4 4 1h13l12-4 9-6 5-5 5-8 3-8 1-6 1-113h38l1 1v113l-1 11-8 19-7 11-12 12-11 7-14 6-17 4h-27l-15-4-16-8-12-9-9-9-7-11-6-14-1-5-1-18v-105z" fill="#1C65B5"/>
<path transform="translate(1489,1132)" d="m0 0 17 2 10 4 11 8 7 7 7 11 5 12 3 13v23l-7 21-7 11-9 10-8 6-8 4-14 4h-24l-11-4-10-6-2-2-1 52h-36v-128l1-43h35v14l1 2 10-10 11-7 9-3zm-14 30-10 4-9 7-6 9-3 7-1 5v18l3 10 9 10 7 5 7 2h14l10-4 6-5 6-8 4-11v-20l-2-9-7-10-6-5-9-4-3-1z" fill="#E95426"/>
<path transform="translate(962,1082)" d="m0 0h30l10 2 13 5 12 6 9 6-7 11-9 17-4-1-13-6-13-3h-21l-15 4-12 7-7 6-8 11-5 11-2 7-1 14 2 13 7 16 8 10 7 6 14 7 15 4h14l21-6 9-5 5 1 10 14 5 5-1 4-11 8-16 8-11 4-19 3h-11l-14-2-12-4-16-8-11-7-13-13-7-11-7-15-6-21-1-7v-14l4-18 4-12 9-17 8-10 10-9 14-9 10-5 17-6z" fill="#E95426"/>
<path transform="translate(38,847)" d="m0 0h29l6 18 6 25 7 31 2-3 9-31 7-25 3-14 1-1h23l5 17 9 37 4 16 1 2 2-6 7-22 4-15 8-29h29l-1 8-11 39-11 40-8 31-2 3h-26l-3-5-5-19-9-30-4-13-4 11-6 23-8 31-3 3h-21l-7-1-3-4-14-53-7-26-9-36z" fill="#E97C4F"/>
<path transform="translate(505,417)" d="m0 0h35l5 8 15 26 17 28 6 10v-49l1-22 5-1h28l2 3-1 123-1 1h-35l-7-10-12-22-10-17-12-19-1 26v41l-1 1h-34z" fill="#F5C643"/>
<path transform="translate(1101,1132)" d="m0 0h15l18 3 10 4 11 8 5 4 9 12 6 13 2 8 1 10v13l-3 18-9 16-7 9-9 8-12 6-14 4-17 1-15-2-16-6-10-7-10-9-7-10-5-11-2-9v-24l3-14 8-16 9-10 7-7 10-6 15-5zm7 29-10 3-11 8-6 9-4 13v15l3 10 5 8 7 7 8 4 4 1h13l9-3 10-9 5-10 2-8v-19l-4-11-5-7-11-7-7-3z" fill="#E95426"/>
<path transform="translate(1617,1132)" d="m0 0 17 1 12 3 12 7 9 8 8 14 1 10v91l-4 1h-27l-2-4v-11l-18 11-13 5-12 1-11-2-10-5-8-8-8-16-2-8v-9l5-14 8-9 11-7 14-5 5-1h18l10 3 8 3v-10l-3-9-4-5-10-5h-19l-12 4-13 5-4-5-7-13-2-5 16-8 14-5 9-2zm-4 77-11 4-5 3-4 9 2 9 5 6 7 3h9l11-4 6-4 7-7 2-4v-5l-4-5-8-4-4-1z" fill="#E95426"/>
<path transform="translate(822,926)" d="m0 0h67v14l-3 28-5 20-11 33-9 21-4 6h-63l-10-1 2-5 6-10 9-19 6-16 7-25 5-31 2-14z" fill="#39A069"/>
<path transform="translate(1853,1133)" d="m0 0h15l14 3 10 4 12 7 1 4-9 15-3 6-5-1-9-6-11-4-13-1-7 2-3 4v6l4 6 6 3 19 5 17 7 10 8 7 10 2 7v11l-3 10-6 10-6 7-9 6-15 5-7 1h-18l-16-4-12-5-13-7 1-5 11-22 16 8 9 4 12 2h7l7-2 5-5 1-2v-6l-10-6-19-6-15-7-9-7-6-8-5-12v-10l5-13 6-8 11-8 14-5z" fill="#E95427"/>
<path transform="translate(1737,1133)" d="m0 0h16l15 3 14 7 7 5-1 5-8 15-2 4-6-2-12-7-6-2-13-1-9 3-2 3v8l5 5 10 3 17 5 14 6 10 8 6 8 3 10v11l-2 10-6 10-7 7-14 7-9 3-6 1h-19l-17-5-24-12 1-5 11-19 2-1 21 10 8 2h17l7-4 2-3v-6l-5-5-11-4-13-4-16-7-12-11-4-6-3-12 1-12 4-10 8-10 9-6 13-4z" fill="#E95527"/>
<path transform="translate(925,847)" d="m0 0h72l1 2v23l-1 1h-42v21l41 1 1 1v22l-1 1h-41v23h42l5 1 1 13v10l-1 1h-78v-119z" fill="#39A069"/>
<path transform="translate(786,1085)" d="m0 0h36l2 1v180h-38l-1-2v-178z" fill="#1C65B4"/>
<path transform="translate(549,1270)" d="m0 0 14 1 12 4 11 6 2 2-1 4-9 17-18-9-10-1-7 2-3 4v6l4 6 9 3 15 4 10 6 7 7 5 10 1 5v8l-2 9-9 13-11 8-13 3h-18l-14-3-14-8-1-5 8-16 4-1 11 6 10 2h14l4-1 2-9-3-5-13-6-13-4-11-7-7-9-3-7v-17l4-9 6-8 10-6 10-4z" fill="#287DC2"/>
<path transform="translate(724,1342)" d="m0 0 11 1 3 8 6 20 10 32 4 14 2-2 16-56 4-15 1-1h13l1 2-12 39-10 33-7 22-1 1h-9l-3-2-9-25-12-37-3-10v-3h-2l-1 7-6 22-9 31-5 16-1 1h-8l-4-2-8-26-13-41-7-26v-2h11l3 4 6 21 7 24 7 23 4-11 12-41 7-20z" fill="#4A4C50"/>
<path transform="translate(1636,1342)" d="m0 0 10 2 9 11 12 16 14 19 14 18 5 7v-30l1-42h13v96l-2 1h-8l-3-1-6-8-13-16-13-18-21-28h-1l1 70-1 1h-11l-1-6v-90z" fill="#4A4C50"/>
<path transform="translate(938,1343)" d="m0 0h30l16 2 8 4 6 8 3 7v9l-4 9-4 5-4 3 8 6 5 6 2 4 1 7-2 9-4 6-9 8-8 3-8 1h-34l-2-2zm12 12v31h23l6-2 7-8 1-2v-8l-4-7-4-3-3-1zm0 41v32h27l8-4 4-5v-12l-3-5-5-4-6-2z" fill="#555659"/>
<path transform="translate(1113,1343)" d="m0 0h32l15 2 12 5 8 7 6 10 4 9 1 6v17l-3 12-7 12-7 7-12 6-9 3-10 1h-30l-1-1v-95zm11 12-1 2v71h22l11-2 10-5 7-8 4-13v-20l-4-10-6-7-11-6-10-2z" fill="#4A4D50"/>
<path transform="translate(1541,1341)" d="m0 0h16l11 4 8 5 7 8-2 4-3 5-4-1-8-7-7-3-13-1-11 2-8 5-7 8-5 13v14l4 13 6 8 6 5 8 3 5 1h12l12-3 4-4v-20h-19l-1-1v-11h32l1 1v37l-5 5-12 6-10 3h-19l-13-4-10-7-6-7-6-12-2-10v-20l3-11 6-10 10-10 12-6z" fill="#4A4D51"/>
<path transform="translate(835,1343)" d="m0 0h19l37 1 1 3-1 8h-43l1 30h18l19 1v10l-28 1h-10v31h45l1 1v10l-1 1h-58l-1-1v-95z" fill="#555659"/>
<path transform="translate(1783,1341)" d="m0 0h12l14 5 8 5-1 5-5 6-11-6-4-1h-11l-7 3-3 5v7l3 5 6 4 21 8 11 8 6 10 1 3v7l-3 8-4 6-5 5-10 5-5 1h-12l-13-4-12-6-1-5 5-7 4 1 6 5 11 3h12l8-3 3-4 1-9-2-7-6-2-11-5-13-5-9-7-5-8-1-3v-14l4-8 8-7z" fill="#494C50"/>
<path transform="translate(1237,1343)" d="m0 0h54l2 1-1 11h-43v31l14-1h23l1 1v10h-38v19l-1 13h47v11l-1 1h-57l-1-1v-21z" fill="#555659"/>
<path transform="translate(1362,1341)" d="m0 0h13l11 4 9 6-1 6-3 5-5-2-10-5h-15l-6 3-3 5v7l4 6 10 5 19 7 9 7 6 9 1 2v11l-3 7-6 8-10 6-7 2h-14l-12-4-10-6-2-2 1-6 3-5 12 8 12 3h7l9-3 5-5v-12l-5-5-26-10-9-7-6-7-2-8v-8l3-8 7-8 10-5z" fill="#494C50"/>
<path transform="translate(1445,1343)" d="m0 0h12l1 1v95l-1 1h-10l-2-1z" fill="#555659"/>
<path transform="translate(1113,1343)" d="m0 0h32l15 2 12 5 4 4-8 1-1 1 2 1 1 6-2 2-9-6-6-2-7-1h-22v28l-1 13-3 5h-2l-1 2v-2l-2-1 1-4v-2h-2l-2 2v-53z" fill="#4A4D51"/>
<path transform="translate(1552,1388)" d="m0 0h32l1 1v37l-5 5-12 6-10 3h-19l4-3 6-4v-5l17-3 5-3 1-2v-20h-19l-1-1z" fill="#56575A"/>
<path transform="translate(1635,1354)" d="m0 0h1v15l6-1 5 1 1 70-1 1h-11l-1-6z" fill="#565759"/>
<path transform="translate(943,1344)" d="m0 0h37l10 4 5 5 5 8 1 8-2 5h-7l-4-3-3-8-4-5-5-2-27-1-5-1h-1z" fill="#494C50"/>
<path transform="translate(1243,1423)" d="m0 0 5 1v4h47v11l-1 1h-57v-14h4v-2z" fill="#4A4D51"/>
<path transform="translate(839,1419)" d="m0 0h2l4 4h2v6l23-1h23l1 1v10l-1 1h-37l-18-1-3-3v-13l5-1z" fill="#494C50"/>
<path transform="translate(994,1415)" d="m0 0 4 1 4 6-2 5-7 7-7 4-4 1h-40l-1-4 1-5 8-1 22-1 10-3 5-4 2-3 5-1z" fill="#494C50"/>
<path transform="translate(1113,1394)" d="m0 0 3 1 1 5v2l3-1 3-4v31h17l5 5 1 4-4 2-29 1-1-1v-42z" fill="#494C50"/>
<path transform="translate(1175,1405)" d="m0 0 3 4 9 3-4 8-9 10-12 6-9 3-10 1h-24v-1l23-1 3-2-2-6-3-1v-1l16-3 10-5 6-7z" fill="#555659"/>
<path transform="translate(1552,1388)" d="m0 0h32v10l-8 1-3 2-20-1-1-1z" fill="#494C50"/>
<path transform="translate(1147,1344)" d="m0 0h8l13 4 8 5v1l-8 1-1 1 2 1 1 6-2 2-9-6-6-2-20-2-1-3 2-3 5 2 1 3h2l1-2 9-1-5-6z" fill="#555659"/>
<path transform="translate(1362,1341)" d="m0 0h13l11 4 9 6-1 6-3 5-5-2-10-5-12-1v-1l8-1-2-5-4-2-1-2z" fill="#56575A"/>
<path transform="translate(852,1385)" d="m0 0h15l19 1v10h-10l-1-2-13-2h-6l-1 3-3-4-1-4z" fill="#4A4D51"/>
<path transform="translate(1112,1364)" d="m0 0h1l1 6 7 4v10 3l2 2v8l-3 5h-2l-1 2v-2l-2-1 1-4v-2h-2l-2 2z" fill="#555659"/>
<path transform="translate(1645,1422)" d="m0 0 2 1 1 4v12l-1 1h-11l-1-3 1-11 4 1 1-2z" fill="#4A4D51"/>
<path transform="translate(1385,1347)" d="m0 0 6 1 4 3-1 6-3 5-5-2-5-3-3-5 2-4z" fill="#4A4C50"/>
<path transform="translate(1653,1372)" d="m0 0 4 1 4 4v2l2 1 1 2 4 2 3 10-3 1-12-15-4-7z" fill="#56575A"/>
<path transform="translate(821,1085)" d="m0 0 3 1-2 7-3 1-4-4-3-1v-2l-2-1z" fill="#2B7FC3"/>
<path transform="translate(1112,1347)" d="m0 0h3v2h2l-1 12-1 2-3-1z" fill="#555659"/>
<path transform="translate(1237,1344)" d="m0 0h7l1 3-5 7-3-1z" fill="#494C50"/>
<path transform="translate(615,1086)" d="m0 0h13l1 3-1 6-1-2h-3v-2l-6-2z" fill="#2C7EC3"/>
<path transform="translate(1665,1370)" d="m0 0 5 5 6 9-6-1-1-5h-2l-2-3z" fill="#56575A"/>
<path transform="translate(834,1423)" d="m0 0h1l1 15 20 1v1h-21l-1-1z" fill="#56575A"/>
<path transform="translate(1154,1348)" d="m0 0 2 2 3-1 6 3-2 1 1 4-3-1-2-3-2 1v-2h-3z" fill="#494C50"/>
<path transform="translate(1113,1394)" d="m0 0 3 1 1 5-2 4-3 1v-8z" fill="#4C4F52"/>
<path transform="translate(1650,1350)" d="m0 0 5 5 5 8h-3l-4-4z" fill="#56575A"/>
</svg>
