<?xml version="1.0" encoding="UTF-8"?>
<svg version="1.1" viewBox="0 0 1210 1513" width="1210" height="1513" xmlns="http://www.w3.org/2000/svg">
<path transform="translate(9,8)" d="m0 0h1191l1 120 4 1104v203l-10 9-9 9-8 7-10 10-8 7-26 26-4 2h-1121l-1-1v-1495z" fill="#fff"/>
<path transform="translate(9,8)" d="m0 0h1191l1 120 4 1104v203l-10 9-9 9-8 7-10 10-8 7-26 26-4 2h-1121l-1-1v-1495zm8 9v1067h1178v-233l-3-834z" fill="#003165"/>
<path transform="translate(509,305)" d="m0 0h135l18 3 12 4 13 7 10 9 7 10 5 11 3 13v19l-4 16-7 12-10 9-7 4h-2v2l9 3 12 9 8 10 5 10 3 10 1 7v22l-4 16-8 16-11 12-10 9-14 7-17 4-19 2h-128z" fill="#003165"/>
<path transform="translate(333,298)" d="m0 0h14l18 2 19 5 16 8 10 8 8 8 9 14 5 11 4 17v10h-49l-2-7-4-11-7-9-10-6-16-4h-21l-13 3-8 4-6 5-4 7-1 4v13l4 9 8 6 15 5 63 16 18 6 15 8 11 9 6 8 6 12 3 14v23l-3 15-5 12-6 10-9 10-10 8-15 8-15 5-16 3-10 1h-18l-20-2-20-5-16-7-10-7-10-9-8-11-6-12-4-14-1-6v-13h49l4 16 6 10 8 7 12 5 10 2h26l15-3 12-6 6-7 3-7v-16l-3-6-8-7-12-5-21-6-48-12-17-6-13-7-12-11-6-9-5-12-2-10-1-10v-9l3-19 6-15 9-13 7-7 10-7 12-6 16-5 12-2z" fill="#003165"/>
<path transform="translate(846,561)" d="m0 0h40v112l-40 40h-523v-109l1-1h40v69h481v-110z" fill="#CB0000"/>
<path transform="translate(324,150)" d="m0 0h562l1 1v109h-41v-68h-481v68h-41z" fill="#003165"/>
<path transform="translate(845,305)" d="m0 0h42l20 63 18 57 40 126 2 10h-51l-3-8-19-63-28-93-2 4-21 70-20 68-7 22h-51l1-7 18-56 18-57 21-66 18-57z" fill="#003165"/>
<path transform="translate(404,1251)" d="m0 0h40l12 3 9 6 5 10 1 5v8l-2 9-4 6-8 7h-2l16 28 3 3 22-70 5-15h25l24 77 3 10v3h-21l-5-17v-4h-28l-4 18-1 3h-42l-16-30-1-1-11-1v32h-20z" fill="#fff"/>
<path transform="translate(560,449)" d="m0 0h79l12 4 8 6 4 5 3 7v19l-4 11-7 8-9 5-8 2-11 1h-66l-1-1z" fill="#fff"/>
<path transform="translate(721,1250)" d="m0 0h14l13 4 9 7 6 8 4 10 2 11v11l-2 12-4 10-8 10-10 6-11 3h-12l-11-3-10-6-8-10-5-14-1-8v-11l3-15 6-11 7-7 10-5z" fill="#fff"/>
<path transform="translate(774,1251)" d="m0 0h21l7 47 3 21 7-35 7-31 1-2h17l2 6 9 40 4 21 2-10 8-56 1-1h19l-2 14-13 73-1 3h-25l-2-5-10-49v-6h-2l-1 12-10 48h-25l-2-6-15-81z" fill="#fff"/>
<path transform="translate(844,1373)" d="m0 0h33l13 3 9 5 7 7 6 12 2 12v11l-2 12-4 9-6 8-8 6-11 4-6 1h-33z" fill="#fff"/>
<path transform="translate(1054,1251)" d="m0 0h33l13 3 9 5 7 7 6 12 2 12v11l-2 12-4 9-6 8-8 6-11 4-6 1h-33z" fill="#fff"/>
<path transform="translate(1082,1129)" d="m0 0h33l13 3 9 5 7 7 6 12 2 12v11l-2 12-4 9-6 8-8 6-11 4-6 1h-33z" fill="#fff"/>
<path transform="translate(587,1129)" d="m0 0h33l13 3 9 5 7 7 6 12 2 12v11l-2 12-4 9-6 8-8 6-11 4-6 1h-33z" fill="#fff"/>
<path transform="translate(860,1129)" d="m0 0h39l12 3 6 4 4 5 2 5v10l-3 8-4 5-4 1v2l5 1 8 7 3 9v7l-3 9-7 8-8 4-9 2h-41z" fill="#fff"/>
<path transform="translate(846,561)" d="m0 0h40v112l-40 40h-1v-151z" fill="#003165"/>
<path transform="translate(560,350)" d="m0 0h75l11 3 7 4 6 8 1 4v16l-4 8-8 7-10 4-6 1h-72z" fill="#fff"/>
<path transform="translate(472,1373)" d="m0 0h40l12 3 9 6 5 10 1 5v8l-2 9-4 6-8 7h-2l16 28 4 8h-23l-16-30-1-1-11-1v32h-20z" fill="#fff"/>
<path transform="translate(202,1129)" d="m0 0h40l12 3 9 6 5 10 1 5v8l-2 9-4 6-8 7h-2l16 28 4 8h-23l-16-30-1-1-11-1v32h-20z" fill="#fff"/>
<path transform="translate(893,1251)" d="m0 0h21l17 33 8 15 6 14-1-16v-46h19v90h-21l-10-19-14-27-7-15 1 18v43h-19z" fill="#fff"/>
<path transform="translate(561,1251)" d="m0 0h21l17 33 8 15 6 14-1-16v-46h19v90h-21l-10-19-14-27-7-15 1 18v43h-19z" fill="#fff"/>
<path transform="translate(800,1129)" d="m0 0h25l24 77 3 10v3h-21l-5-17v-4h-28l-4 18-1 3h-21l3-11 20-64z" fill="#fff"/>
<path transform="translate(771,1373)" d="m0 0h56v17h-36v18h31v17h-31v21h37v17h-57z" fill="#fff"/>
<path transform="translate(399,1373)" d="m0 0h56v17h-36v18h31v17h-31v21h37v17h-57z" fill="#fff"/>
<path transform="translate(981,1251)" d="m0 0h56v17h-36v18h31v17h-31v21h37v17h-57z" fill="#fff"/>
<path transform="translate(332,1251)" d="m0 0h56v17h-36v18h31v17h-31v21h37v17h-57z" fill="#fff"/>
<path transform="translate(185,1251)" d="m0 0h56v17h-36v18h31v17h-31v21h37v17h-57z" fill="#fff"/>
<path transform="translate(1009,1129)" d="m0 0h56v17h-36v18h31v17h-31v21h37v17h-57z" fill="#fff"/>
<path transform="translate(472,1129)" d="m0 0h56v17h-36v18h31v17h-31v21h37v17h-57z" fill="#fff"/>
<path transform="translate(130,1129)" d="m0 0h56v17h-36v18h31v17h-31v21h37v17h-57z" fill="#fff"/>
<path transform="translate(733,1128)" d="m0 0h12l13 4 9 6v4l-8 10-5-2-11-4h-7l-6 3-1 7 5 4 23 10 6 4 5 6 3 9v7l-3 9-8 9-11 5-6 1h-12l-12-3-10-5-5-5 9-11 4-2 10 6 7 2h7l7-3 1-2v-6l-5-4-25-11-5-4-5-8-1-3v-13l4-8 7-7 10-4z" fill="#fff"/>
<path transform="translate(79,1128)" d="m0 0h12l13 4 9 6v4l-8 10-5-2-11-4h-7l-6 3-1 7 5 4 23 10 6 4 5 6 3 9v7l-3 9-8 9-11 5-6 1h-12l-12-3-10-5-5-5 9-11 4-2 10 6 7 2h7l7-3 1-2v-6l-5-4-25-11-5-4-5-8-1-3v-13l4-8 7-7 10-4z" fill="#fff"/>
<path transform="translate(100,1251)" d="m0 0h22l17 67 1 2 17-68 1-1h20l-2 10-24 80h-25l-8-25-15-50-4-13z" fill="#fff"/>
<path transform="translate(270,1129)" d="m0 0h22l17 67 1 2 17-68 1-1h20l-2 10-24 80h-25l-8-25-15-50-4-13z" fill="#fff"/>
<path transform="translate(353,1372)" d="m0 0h12l10 3 9 6 2 4-9 11-5-2-5-3-10-1-8 3-7 8-3 10v14l3 10 4 6 6 4 11 1 8-3 5-4 4 2 8 9-6 7-12 6-5 1h-13l-13-4-8-6-7-8-4-8-3-14v-11l3-14 6-11 8-8 14-7z" fill="#fff"/>
<path transform="translate(425,1128)" d="m0 0h12l10 3 9 6 2 4-9 11-5-2-5-3-10-1-8 3-7 8-3 10v14l3 10 4 6 6 4 11 1 8-3 5-4 4 2 8 9-6 7-12 6-5 1h-13l-13-4-8-6-7-8-4-8-3-14v-11l3-14 6-11 8-8 14-7z" fill="#fff"/>
<path transform="translate(663,1373)" d="m0 0h56v17h-36v21h31v17h-31v35h-20z" fill="#fff"/>
<path transform="translate(543,1373)" d="m0 0h70v17h-25v73h-20v-73h-25z" fill="#fff"/>
<path transform="translate(250,1251)" d="m0 0h70v17h-25v73h-20v-73h-25z" fill="#fff"/>
<path transform="translate(941,1129)" d="m0 0h20v73h35v17h-55z" fill="#fff"/>
<path transform="translate(725,1267)" d="m0 0 10 1 7 5 5 10 1 5v15l-3 11-8 9-6 2-10-1-8-7-4-9-1-5v-15l3-10 5-7 5-3z" fill="#003165"/>
<path transform="translate(732,1373)" d="m0 0h20v90h-20z" fill="#fff"/>
<path transform="translate(624,1373)" d="m0 0h20v90h-20z" fill="#fff"/>
<path transform="translate(672,1129)" d="m0 0h20v90h-20z" fill="#fff"/>
<path transform="translate(356,1129)" d="m0 0h20v90h-20z" fill="#fff"/>
<path transform="translate(864,1389)" d="m0 0h8l10 3 7 6 3 7 1 5v15l-3 10-4 6-6 4-8 2h-8z" fill="#003165"/>
<path transform="translate(1074,1267)" d="m0 0h8l10 3 7 6 3 7 1 5v15l-3 10-4 6-6 4-8 2h-8z" fill="#003165"/>
<path transform="translate(1102,1145)" d="m0 0h8l10 3 7 6 3 7 1 5v15l-3 10-4 6-6 4-8 2h-8z" fill="#003165"/>
<path transform="translate(607,1145)" d="m0 0h8l10 3 7 6 3 7 1 5v15l-3 10-4 6-6 4-8 2h-8z" fill="#003165"/>
<path transform="translate(632,817)" d="m0 0h21l6 4 2 5-1 6-5 5 7 5 1 2v9l-6 7-7 2h-18z" fill="#003165"/>
<path transform="translate(450,890)" d="m0 0h6v48l-5 1-2-3-4 3-6 1-8-3-4-6-1-4v-10l4-8 5-4 8-1 6 3z" fill="#003165"/>
<path transform="translate(771,904)" d="m0 0 8 1 6 4 4 8v10l-4 8-6 4-6 1-9-3-4-5-2-5v-10l4-8 6-4z" fill="#003165"/>
<path transform="translate(497,827)" d="m0 0 7 1 4 4 10-5 7 1 4 5 1 5v23l-1 1h-5l-1-23-2-5h-7l-3 3-1 24-1 1h-5l-1-22-2-6h-7l-4 3-1 25h-5l-1-1v-32l5-1 2 3z" fill="#003165"/>
<path transform="translate(481,904)" d="m0 0 7 1 3 3v2l7-5 7-1 5 3 3 5v27h-6l-1-25-1-3h-7l-4 3-1 25h-6l-1-25-2-3h-7l-3 3-1 24-1 1h-5v-34h5l1 4 5-4z" fill="#003165"/>
<path transform="translate(400,893)" d="m0 0h6l14 40 1 6h-6l-4-11v-3h-17l-2 10-2 4h-6l3-10 12-35z" fill="#003165"/>
<path transform="translate(690,904)" d="m0 0 9 1 5 5 1 3v26h-5l-1-3-5 3-6 1-7-3-2-3v-8l5-5 8-3 6-1-1-6-7-1-8 3-1-5 5-3z" fill="#003165"/>
<path transform="translate(551,827)" d="m0 0 8 1 5 5 1 3v26h-5l-1-3-5 3-6 1-7-3-2-3v-8l5-5 8-3 6-1-1-6-6-1-9 3-1-5 6-3z" fill="#003165"/>
<path transform="translate(492,1389)" d="m0 0h17l8 4 2 4v8l-3 6-8 4h-16z" fill="#003165"/>
<path transform="translate(424,1267)" d="m0 0h17l8 4 2 4v8l-3 6-8 4h-16z" fill="#003165"/>
<path transform="translate(222,1145)" d="m0 0h17l8 4 2 4v8l-3 6-8 4h-16z" fill="#003165"/>
<path transform="translate(809,827)" d="m0 0 8 1 5 4 3 9-1 5h-22l3 8 6 3 7-1 3-1 2 2v3l-9 3-8-1-6-4-4-8v-9l3-7 5-5z" fill="#003165"/>
<path transform="translate(323,817)" d="m0 0h6l1 30 2 8 3 1h9l3-1 2-7 1-31h6v31l-3 8-5 5-10 2-9-3-4-5-2-7z" fill="#003165"/>
<path transform="translate(880,1180)" d="m0 0h18l7 3 3 4v8l-4 6-5 2h-19z" fill="#003165"/>
<path transform="translate(454,816)" d="m0 0h10l6 3 2 3-2 3-5-2-9-1-4 2v8l6 2 12 6 3 4 1 8-3 6-6 4-8 1-8-2-6-4 1-4h4l6 3h9l3-2 1-5-1-3-17-9-4-5v-9l5-5z" fill="#003165"/>
<path transform="translate(385,816)" d="m0 0h11l8 5-4 4-6-3h-7l-4 4 1 5 17 9 4 5v9l-6 7-7 2-9-1-8-5v-3l4-2 6 4h9l4-1v-8l-8-5-10-5-4-6v-6l4-6z" fill="#003165"/>
<path transform="translate(644,1299)" d="m0 0h34v14h-34z" fill="#fff"/>
<path transform="translate(539,1177)" d="m0 0h34v14h-34z" fill="#fff"/>
<path transform="translate(774,827)" d="m0 0 7 1 4 4 1 2v28h-5l-1-1-1-25-1-2h-8l-4 3-1 25h-5l-1-1v-32l5-1 2 3z" fill="#003165"/>
<path transform="translate(812,904)" d="m0 0 8 1 4 5 1 4v24l-1 1h-5l-1-24-2-4h-7l-4 3-1 24-1 1h-5v-34h5l1 4 5-4z" fill="#003165"/>
<path transform="translate(558,904)" d="m0 0 8 1 4 5 1 4v24l-1 1h-5l-1-24-2-4h-7l-4 3-1 24-1 1h-5v-34h5l1 4 5-4z" fill="#003165"/>
<path transform="translate(671,828)" d="m0 0h6l1 25 2 3h7l4-4 1-24h6v34h-5l-1-4-6 4-6 1-5-2-3-4-1-3z" fill="#003165"/>
<path transform="translate(880,1145)" d="m0 0h17l5 3 1 2v9l-5 5-3 1h-15z" fill="#003165"/>
<path transform="translate(772,909)" d="m0 0 6 1 4 5 1 3v8l-3 6-2 2-5 1-6-3-3-6v-8l3-6z" fill="#fff"/>
<path transform="translate(608,904)" d="m0 0 9 1 4 2-1 4-2 1-4-2h-8v5l5 3 8 4 3 3 1 6-3 5-4 3-7 1-9-3-2-3 2-3 5 2 8 1 3-2-1-5-9-4-6-5-1-6 3-5z" fill="#003165"/>
<path transform="translate(872,827)" d="m0 0 8 1 4 2-1 4-2 1-4-2h-6l-2 2 1 4 12 6 4 5-1 7-4 4-9 2-9-3-2-3 2-3 5 2 8 1 3-2-1-5-9-4-6-5-1-5 3-6z" fill="#003165"/>
<path transform="translate(718,827)" d="m0 0 8 1 4 2-1 4-2 1-4-2h-6l-2 2 1 4 9 4 6 5 1 6-3 6-8 3-10-2-4-4 2-3 5 2 8 1 3-2-1-5-12-6-3-3-1-5 3-6z" fill="#003165"/>
<path transform="translate(841,827)" d="m0 0 9 1 4 4-3 3-4-2h-6l-2 1v5l14 7 2 3v7l-4 5-6 2-8-1-6-3 1-4 2-1 6 3h6l3-3-1-4-14-7-2-3v-6l4-5z" fill="#003165"/>
<path transform="translate(440,909)" d="m0 0 6 1 4 3v17l-5 4h-8l-4-5-1-10 3-7z" fill="#fff"/>
<path transform="translate(634,896)" d="m0 0h5v9h9v5h-9l1 24h8l1 4-6 2-7-2-3-4v-24h-5v-5h5v-7z" fill="#003165"/>
<path transform="translate(512,1267)" d="m0 0 2 1 8 32v4h-19z" fill="#003165"/>
<path transform="translate(811,1145)" d="m0 0 2 1 8 32v4h-19z" fill="#003165"/>
<path transform="translate(719,896)" d="m0 0h5v9h9v5h-9l1 22 5 2h3l1 4-7 2-7-3-2-4v-23h-5l1-5h4z" fill="#003165"/>
<path transform="translate(596,813)" d="m0 0h6v44h3l1 5-4 1-5-3-1-3z" fill="#003165"/>
<path transform="translate(577,813)" d="m0 0h6l1 44 2 1 1 4-4 1-5-3-1-2z" fill="#003165"/>
<path transform="translate(638,840)" d="m0 0h11l7 3 1 2v7l-4 4-4 1h-11z" fill="#fff"/>
<path transform="translate(670,904)" d="m0 0 5 1-1 5-8 2-2 3-1 23-1 1h-5v-34l5 1 1 3 4-4z" fill="#003165"/>
<path transform="translate(638,821)" d="m0 0h9l7 3 1 6-2 4-6 2h-9z" fill="#fff"/>
<path transform="translate(742,905)" d="m0 0h6v34h-6z" fill="#003165"/>
<path transform="translate(583,905)" d="m0 0h6v34h-6z" fill="#003165"/>
<path transform="translate(525,905)" d="m0 0h6v34h-6z" fill="#003165"/>
<path transform="translate(741,828)" d="m0 0h6v34h-6z" fill="#003165"/>
<path transform="translate(698,921)" d="m0 0h1v10l-7 4-6-1-1-1v-7l8-4z" fill="#fff"/>
<path transform="translate(553,845)" d="m0 0h6v9l-4 3-6 1-4-2v-6l3-3z" fill="#fff"/>
<path transform="translate(402,899)" d="m0 0 2 3 5 16v2h-13z" fill="#fff"/>
<path transform="translate(809,832)" d="m0 0 7 1 3 4v5h-17l1-5 4-4z" fill="#fff"/>
<path transform="translate(413,854)" d="m0 0h5l2 5-4 4-5-3 1-5z" fill="#003165"/>
<path transform="translate(361,854)" d="m0 0h5l2 2-1 6-4 1-3-2v-6z" fill="#003165"/>
<path transform="translate(743,891)" d="m0 0 5 1 1 5-5 2-3-2 1-5z" fill="#003165"/>
<path transform="translate(584,891)" d="m0 0 5 1 1 5-5 2-3-2 1-5z" fill="#003165"/>
<path transform="translate(742,814)" d="m0 0 5 1 1 5-5 2-3-2 1-5z" fill="#003165"/>
<path transform="translate(526,891)" d="m0 0 5 1 1 5-5 2-3-3 1-4z" fill="#003165"/>
</svg>
